<svg xmlns="http://www.w3.org/2000/svg">
    <symbol viewBox="0 0 14 18" id="location">
        <path fill-rule="evenodd" clip-rule="evenodd" d="M7 0C3.13 0 0 3.13 0 7C0 12.25 7 18 7 18C7 18 14 12.25 14 7C14 3.13 10.87 0 7 0ZM7 10C8.65685 10 10 8.65685 10 7C10 5.34315 8.65685 4 7 4C5.34315 4 4 5.34315 4 7C4 8.65685 5.34315 10 7 10Z" fill="#4B4B4B"/>
    </symbol>

    <symbol viewBox="0 0 14 22" id="tel">
        <path fill-rule="evenodd" clip-rule="evenodd" d="M11 0H3C1.34 0 0 1.34 0 3V19C0 20.66 1.34 22 3 22H11C12.66 22 14 20.66 14 19V3C14 1.34 12.66 0 11 0ZM8.5 20H5.5C5.22 20 5 19.78 5 19.5C5 19.22 5.22 19 5.5 19H8.5C8.78 19 9 19.22 9 19.5C9 19.78 8.78 20 8.5 20ZM12 17H2V3H12V17Z" fill="#75787E"/>
    </symbol>

    <symbol viewBox="0 0 24 24" id="user" fill="none">
        <circle cx="12" cy="7" r="5" stroke="#75787E" stroke-width="2" stroke-linecap="round" stroke-linejoin="round"/>
        <path d="M19 22H5C3.89543 22 3.01452 21.1019 3.2104 20.0148C3.73582 17.0989 5.57341 12 12 12C18.4266 12 20.2642 17.0989 20.7896 20.0148C20.9855 21.1019 20.1046 22 19 22Z" stroke="#75787E" stroke-width="2" stroke-linecap="round" stroke-linejoin="round"/>
    </symbol>

    <symbol viewBox="0 0 24 24" id="basket" fill="none">
        <path d="M9 22C9.55228 22 10 21.5523 10 21C10 20.4477 9.55228 20 9 20C8.44772 20 8 20.4477 8 21C8 21.5523 8.44772 22 9 22Z" stroke="#E94F1D" stroke-width="2" stroke-linecap="round" stroke-linejoin="round"/>
        <path d="M9 22C9.55228 22 10 21.5523 10 21C10 20.4477 9.55228 20 9 20C8.44772 20 8 20.4477 8 21C8 21.5523 8.44772 22 9 22Z" stroke="#FC5824" stroke-width="2" stroke-linecap="round" stroke-linejoin="round"/>
        <path d="M9 22C9.55228 22 10 21.5523 10 21C10 20.4477 9.55228 20 9 20C8.44772 20 8 20.4477 8 21C8 21.5523 8.44772 22 9 22Z" stroke="#E7351D" stroke-width="2" stroke-linecap="round" stroke-linejoin="round"/>
        <path d="M21 22C21.5523 22 22 21.5523 22 21C22 20.4477 21.5523 20 21 20C20.4477 20 20 20.4477 20 21C20 21.5523 20.4477 22 21 22Z" stroke="#E94F1D" stroke-width="2" stroke-linecap="round" stroke-linejoin="round"/>
        <path d="M21 22C21.5523 22 22 21.5523 22 21C22 20.4477 21.5523 20 21 20C20.4477 20 20 20.4477 20 21C20 21.5523 20.4477 22 21 22Z" stroke="#FC5824" stroke-width="2" stroke-linecap="round" stroke-linejoin="round"/>
        <path d="M21 22C21.5523 22 22 21.5523 22 21C22 20.4477 21.5523 20 21 20C20.4477 20 20 20.4477 20 21C20 21.5523 20.4477 22 21 22Z" stroke="#E7351D" stroke-width="2" stroke-linecap="round" stroke-linejoin="round"/>
        <path d="M1 1H5L7.68 14.39C7.77144 14.8504 8.02191 15.264 8.38755 15.5583C8.75318 15.8526 9.2107 16.009 9.68 16L20.4 14C20.4 14 21.1455 13.8545 21.5 13.5C22 13 22.4 12.39 22.4 12.39L23 5H5.8006" stroke="#E94F1D" stroke-width="2" stroke-linecap="round" stroke-linejoin="round"/>
        <path d="M1 1H5L7.68 14.39C7.77144 14.8504 8.02191 15.264 8.38755 15.5583C8.75318 15.8526 9.2107 16.009 9.68 16L20.4 14C20.4 14 21.1455 13.8545 21.5 13.5C22 13 22.4 12.39 22.4 12.39L23 5H5.8006" stroke="#FC5824" stroke-width="2" stroke-linecap="round" stroke-linejoin="round"/>
        <path d="M1 1H5L7.68 14.39C7.77144 14.8504 8.02191 15.264 8.38755 15.5583C8.75318 15.8526 9.2107 16.009 9.68 16L20.4 14C20.4 14 21.1455 13.8545 21.5 13.5C22 13 22.4 12.39 22.4 12.39L23 5H5.8006" stroke="#E7351D" stroke-width="2" stroke-linecap="round" stroke-linejoin="round"/>
    </symbol>

    <symbol viewBox="0 0 9 14" id="arrow" fill="none">
        <path d="M1.5 1.16669L7.33333 7.00002L1.5 12.8334" stroke="#E94F1D" stroke-width="2" stroke-linecap="round" stroke-linejoin="round"/>
        <path d="M1.5 1.16669L7.33333 7.00002L1.5 12.8334" stroke="#FC5824" stroke-width="2" stroke-linecap="round" stroke-linejoin="round"/>
        <path d="M1.5 1.16669L7.33333 7.00002L1.5 12.8334" stroke="#E7351D" stroke-width="2" stroke-linecap="round" stroke-linejoin="round"/>
    </symbol>

    <symbol viewBox="0 0 24 24" id="info" fill="none">
        <path fill-rule="evenodd" clip-rule="evenodd" d="M12 20C16.4183 20 20 16.4183 20 12C20 7.58172 16.4183 4 12 4C7.58172 4 4 7.58172 4 12C4 16.4183 7.58172 20 12 20ZM12 22C17.5228 22 22 17.5228 22 12C22 6.47715 17.5228 2 12 2C6.47715 2 2 6.47715 2 12C2 17.5228 6.47715 22 12 22Z" fill="#B3B1B1"/>
        <path fill-rule="evenodd" clip-rule="evenodd" d="M12 7C11.4477 7 11 7.44772 11 8C11 8.55229 11.4477 9 12 9C12.5523 9 13 8.55229 13 8C13 7.44772 12.5523 7 12 7ZM12 11C11.4477 11 11 11.4477 11 12V16C11 16.5523 11.4477 17 12 17C12.5523 17 13 16.5523 13 16V12C13 11.4477 12.5523 11 12 11Z" fill="#B3B1B1"/>
    </symbol>
</svg>